<?xml version="1.0" standalone="no"?>
<!DOCTYPE svg PUBLIC "-//W3C//DTD SVG 20010904//EN"
 "http://www.w3.org/TR/2001/REC-SVG-20010904/DTD/svg10.dtd">
<svg version="1.0" xmlns="http://www.w3.org/2000/svg"
 width="512.000000pt" height="512.000000pt" viewBox="0 0 512.000000 512.000000"
 preserveAspectRatio="xMidYMid meet">

<g transform="translate(0.000000,512.000000) scale(0.100000,-0.100000)"
fill="#000000" stroke="none">
<path d="M658 4293 c-342 -402 -554 -862 -628 -1363 -143 -975 292 -1948 1115
-2497 1015 -677 2356 -543 3221 321 690 691 928 1701 617 2626 -114 339 -282
632 -521 913 l-76 88 -127 -127 -128 -128 87 -90 c430 -445 642 -1096 567
-1738 -90 -771 -556 -1427 -1253 -1760 -756 -363 -1681 -267 -2344 244 -189
147 -378 351 -511 553 -131 200 -255 499 -306 738 -154 714 49 1464 531 1963
l87 90 -128 128 -127 127 -76 -88z"/>
</g>
</svg>
